<?xml version="1.0" encoding="UTF-8"?>
<svg id="Camada_2" data-name="Camada 2" xmlns="http://www.w3.org/2000/svg" viewBox="0 0 215.46 215.96">
  <defs>
    <style>
      .cls-1 {
        fill: #3d3c42;
      }

      .cls-2 {
        fill: #7eba0d;
      }
    </style>
  </defs>
  <g id="Layer_1" data-name="Layer 1">
    <g>
      <path class="cls-1" d="M108.84,60.07h-.41c.07.14.14.29.21.43.07-.14.13-.29.21-.43Z"/>
      <path class="cls-1" d="M105.43,215.96h42.43c-9.84-15.26-20.61-28.56-31.72-40.14v-74.08c-1.45,1.56-3.47,2.4-5.5,2.44-1.33.01-2.67.02-4,0-2.18-.03-4.12-.97-5.5-2.44v59.61C51.18,116.75,0,104.2,0,104.2v27.55c69.97,25.96,105.43,84.2,105.43,84.2Z"/>
      <path class="cls-1" d="M39.18,215.96h42.56C42.17,165.02,0,152.54,0,152.54v24.23c0,21.64,17.54,39.18,39.18,39.18Z"/>
      <path class="cls-2" d="M144.84,176.39c17.71-16.85,39.8-32.14,70.62-43.21v-28.98s-44.91,11.03-91.66,49.09c6.63,6.85,12.69,13.47,21.04,23.1Z"/>
      <path class="cls-2" d="M215.46,176.78v-24.23s-27.29,8.12-58.56,37.79c6.66,8.16,13.29,16.81,19.38,25.62,21.64,0,39.18-17.54,39.18-39.18Z"/>
      <path class="cls-2" d="M99.19,99.17c-.45-.61-.96-1.22-1.45-1.83-.48-.62-1.02-1.22-1.55-1.82-.53-.6-1.02-1.23-1.59-1.82-1.08-1.2-2.17-2.41-3.34-3.56-1.13-1.17-2.3-2.33-3.48-3.47-4.76-4.54-9.82-8.87-15.13-12.98-2.71-1.97-5.37-4.07-8.19-5.95l-4.2-2.91c-1.43-.93-2.88-1.83-4.31-2.78l-2.16-1.43-2.22-1.33c-1.48-.9-2.96-1.8-4.44-2.74-1.48-.95-3.02-1.75-4.53-2.66-1.51-.93-3.04-1.8-4.55-2.79,3.52.43,7.09.89,10.58,1.64,1.74.39,3.47.83,5.21,1.26.87.21,1.74.44,2.61.68l2.56.82c1.71.55,3.4,1.15,5.12,1.72,1.7.61,3.33,1.35,5.01,2.03l2.51,1.04c.83.36,1.62.79,2.44,1.18,1.62.81,3.26,1.59,4.87,2.43,3.14,1.82,6.35,3.57,9.34,5.67l2.28,1.53c.74.54,1.49,1.07,2.22,1.63l2.2,1.66c.73.56,1.43,1.16,2.14,1.74l2.14,1.76c.7.6,1.37,1.25,2.05,1.87,1.38,1.23,2.7,2.55,4.01,3.87,1.14,1.14,2.23,2.35,3.3,3.59,1.07-1.24,2.16-2.44,3.3-3.58,1.32-1.32,2.64-2.64,4.01-3.87.68-.62,1.35-1.27,2.06-1.86l2.13-1.76c.71-.58,1.42-1.18,2.14-1.74l2.2-1.66,2.22-1.62,2.28-1.53c2.99-2.1,6.2-3.85,9.34-5.67,1.61-.84,3.25-1.62,4.87-2.43.82-.39,1.61-.82,2.44-1.18l2.51-1.05c1.67-.68,3.31-1.42,5.01-2.03,1.71-.58,3.4-1.18,5.12-1.72l2.56-.82c.86-.24,1.73-.46,2.61-.68,1.74-.44,3.47-.87,5.21-1.27,3.49-.75,7.06-1.21,10.58-1.65-1.51.98-3.05,1.86-4.56,2.78-1.51.91-3.06,1.71-4.53,2.66-1.48.94-2.96,1.84-4.44,2.74l-2.22,1.33-2.16,1.43c-1.43.96-2.88,1.86-4.32,2.78l-4.2,2.91c-2.82,1.88-5.48,3.98-8.19,5.96-2.63,2.09-5.26,4.15-7.77,6.33l-1.9,1.61-1.83,1.68-1.85,1.65c-.61.56-1.18,1.14-1.78,1.71l-1.77,1.72-1.71,1.76c-1.17,1.15-2.25,2.35-3.34,3.56-.56.59-1.06,1.21-1.58,1.83-.53.6-1.06,1.2-1.55,1.82-.5.61-1.01,1.22-1.45,1.83-.22.3-.48.62-.67.9l-.02.03c11.79,2.79,24.22,2.81,36.32-.2,5.68-1.41,11.75-3.61,16.86-6.26,28.37-14.74,38.59-39.04,40.3-59.05,1.36-15.93-2.47-29.61-4.59-34.58-6.3,14.59-18.05,21.14-48.63,26.47-26.05,4.55-36.84,15.08-46.05,28.81-1.02,1.52-1.94,3.13-2.76,4.78-.07.14-.14.29-.21.43-.07-.14-.13-.29-.21-.43-.83-1.66-1.74-3.26-2.76-4.78-9.21-13.73-20-24.26-46.05-28.81C29.04,21.14,17.29,14.59,10.99,0c-2.12,4.97-5.95,18.65-4.59,34.58,1.71,20,11.92,44.3,40.3,59.05,5.12,2.66,11.19,4.85,16.86,6.26,12.1,3.01,24.53,2.99,36.32.2l-.02-.03c-.19-.28-.45-.6-.67-.9Z"/>
      <path class="cls-1" d="M110.64,104.18c2.03-.04,4.05-.88,5.5-2.44.23-.25.45-.51.66-.8l.09-.13.51-.72.02-.03c.19-.28.45-.6.67-.9.45-.61.96-1.22,1.45-1.83.48-.62,1.02-1.22,1.55-1.82.52-.61,1.02-1.23,1.58-1.83,1.08-1.2,2.17-2.41,3.34-3.56l1.71-1.76,1.77-1.72c.59-.57,1.17-1.16,1.78-1.71l1.85-1.65,1.83-1.68,1.9-1.61c2.51-2.18,5.14-4.24,7.77-6.33,2.71-1.98,5.37-4.07,8.19-5.96l4.2-2.91c1.43-.93,2.88-1.83,4.32-2.78l2.16-1.43,2.22-1.33c1.48-.9,2.96-1.8,4.44-2.74,1.48-.94,3.02-1.74,4.53-2.66,1.51-.92,3.04-1.8,4.56-2.78-3.52.44-7.08.9-10.58,1.65-1.74.39-3.47.83-5.21,1.27-.87.21-1.74.44-2.61.68l-2.56.82c-1.71.55-3.4,1.15-5.12,1.72-1.69.61-3.34,1.35-5.01,2.03l-2.51,1.05c-.83.36-1.62.79-2.44,1.18-1.62.81-3.26,1.59-4.87,2.43-3.14,1.82-6.35,3.57-9.34,5.67l-2.28,1.53-2.22,1.62-2.2,1.66c-.73.56-1.43,1.16-2.14,1.74l-2.13,1.76c-.71.6-1.37,1.24-2.06,1.86-1.38,1.23-2.7,2.55-4.01,3.87-1.14,1.14-2.23,2.34-3.3,3.58-1.07-1.24-2.16-2.45-3.3-3.59-1.32-1.32-2.64-2.64-4.01-3.87-.69-.62-1.35-1.27-2.05-1.87l-2.14-1.76c-.71-.58-1.42-1.18-2.14-1.74l-2.2-1.66c-.73-.56-1.48-1.08-2.22-1.63l-2.28-1.53c-3-2.1-6.2-3.86-9.34-5.67-1.61-.85-3.25-1.62-4.87-2.43-.82-.39-1.61-.82-2.44-1.18l-2.51-1.04c-1.68-.68-3.31-1.42-5.01-2.03-1.71-.58-3.41-1.17-5.12-1.72l-2.56-.82c-.87-.24-1.73-.46-2.61-.68-1.74-.43-3.47-.87-5.21-1.26-3.49-.75-7.06-1.2-10.58-1.64,1.51.99,3.05,1.86,4.55,2.79,1.51.91,3.05,1.72,4.53,2.66,1.48.94,2.96,1.84,4.44,2.74l2.22,1.33,2.16,1.43c1.43.95,2.88,1.86,4.31,2.78l4.2,2.91c2.82,1.88,5.48,3.98,8.19,5.95,5.31,4.11,10.37,8.44,15.13,12.98,1.19,1.14,2.35,2.29,3.48,3.47,1.17,1.15,2.25,2.35,3.34,3.56.56.59,1.05,1.22,1.59,1.82.53.6,1.06,1.2,1.55,1.82.5.61,1.01,1.22,1.45,1.83.22.3.48.62.67.9l.02.03.51.72.1.14c.2.28.42.54.65.79,1.38,1.47,3.33,2.41,5.5,2.44,1.33.02,2.67,0,4,0Z"/>
    </g>
  </g>
</svg>