<?xml version="1.0" encoding="UTF-8"?>
<svg id="Camada_2" data-name="Camada 2" xmlns="http://www.w3.org/2000/svg" viewBox="0 0 235.72 306.44">
  <defs>
    <style>
      .cls-1 {
        fill: #3d3c42;
      }

      .cls-2 {
        fill: #7eba0d;
      }
    </style>
  </defs>
  <g id="Layer_1" data-name="Layer 1">
    <g>
      <path class="cls-2" d="M13.78,254.26c2.96,6.33,7.16,12.3,12.42,17.79,22.24-9.11,85.97-30.54,206.01-37.28.04-.82.07-1.64.07-2.47-116.79-4.16-185.26,11.04-218.49,21.96Z"/>
      <path class="cls-2" d="M120.54,306.44c49.18,0,90.94-21.08,105.87-50.37-75.04,12.83-130.78,32.72-155.63,42.63,14.98,4.95,31.88,7.74,49.76,7.74Z"/>
      <path class="cls-2" d="M58.19,293.83c22.56-9.34,85.42-33.08,171.98-47.17.32-1.08.61-2.18.86-3.28-113.88,6.67-175.75,27.09-197.24,35.64,6.98,5.7,15.2,10.7,24.4,14.81Z"/>
      <path class="cls-2" d="M74.15,64.19c.21-4.15,1.63-7.47,3.2-9.92,3.76,1.06,7.65,1.62,11.58,1.62,3.23,0,6.48-.37,9.69-1.12,3.15-.74,6.52-1.9,9.36-3.33,15.79-7.92,21.62-21.26,22.72-32.3.88-8.79-1.13-16.38-2.26-19.14-3.6,8.01-10.14,11.53-27.07,14.24-14.43,2.31-20.47,8.04-25.66,15.55-3.31,4.78-4.8,10.98-4.93,16.65-1.81,2.59-3.2,5.32-4.21,7.7-1.25-1.08-2.72-2.14-4.4-3.02-.75-5.12-2.64-10.42-5.9-14.47-5.72-7.12-12.16-12.41-26.71-13.68C12.47,21.48,5.7,18.44,1.54,10.71c-.93,2.84-2.39,10.55-.89,19.25,1.89,10.93,8.66,23.82,24.98,30.59,2.94,1.22,6.39,2.14,9.58,2.65,2.24.36,4.48.53,6.71.53,5.4,0,10.72-1.04,15.69-3.01,1.93,1.05,3.78,2.55,4.8,4.64v39.75l11.75.1v-41.02Z"/>
      <path class="cls-1" d="M223.51,143.05c-2.52-3.29-5.35-6.33-8.47-9.06h.01s-11.38-67.87-11.38-67.87h0c-1.24-6.56-6.97-11.56-13.9-11.62l-52.25-.46c-5.22-.05-10.19,2.17-13.65,6.08l-11.56,13.09c-2.87,3.25-4.47,7.42-4.51,11.76l-.18,20.55-33.48-.3-11.75-.1-14.96-.13c-7.96-.07-14.48,6.33-14.55,14.29l-.09,10.29c-6.45,1.21-11.36,6.83-11.42,13.64l-.26,29.4c6.16-5.76,14.45-9.27,23.56-9.19,13.11.12,24.42,7.63,30.01,18.55l52.21.46c0-.1,0-.2,0-.3.24-26.69,22.06-48.13,48.75-47.89,23.28.21,42.56,16.84,46.95,38.8,1.14,1.33,3.1,1.82,4.79.95,2.07-1.06,4.14-2.13,6.21-3.2,1.67-.86,2.48-2.78,1.98-4.58-2.36-8.6-6.54-16.46-12.07-23.16ZM179.11,65.9l6.55.06c3.86.03,6.96,3.19,6.93,7.05l4.08,26.3c-.03,3.86-3.19,6.96-7.05,6.93l-7.12-.06c-2.81-.02-5.17-2.14-5.51-4.93l-3.49-29.08c-.4-3.35,2.23-6.29,5.61-6.26ZM121.66,85.09c.04-4.33,1.64-8.51,4.51-11.76l1.49-1.68c3.45-3.91,8.43-6.13,13.65-6.08l13.84.12c3.86.03,6.96,3.19,6.93,7.05l3.26,26.3c-.03,3.86-3.19,6.96-7.05,6.93l-36.8-.33.18-20.55Z"/>
      <path class="cls-1" d="M44.61,172.16c-13.98-.12-25.4,11.1-25.53,25.08s11.1,25.4,25.08,25.53c13.98.12,25.4-11.1,25.53-25.08s-11.1-25.4-25.08-25.53Z"/>
      <circle class="cls-1" cx="175.22" cy="182.56" r="40.21" transform="translate(-77.77 177.37) rotate(-45)"/>
    </g>
  </g>
</svg>